PathFileType	4	(X/Y/Z)	D:\TRACE\v60_Jaco2_6-2-23\BothDRS_Motion2_2-platform.trc
DataRate	CameraRate	NumFrames	NumMarkers	Units	OrigDataRate	OrigDataStartFrame	OrigNumFrames
100.00	100.00	      67	5	mm	100.00	938	      7500
Frame#	Time	Left_Front			Right_Front			Left_Aft			Right_Aft			Post			
		X1	Y1	Z1	X2	Y2	Z2	X3	Y3	Z3	X4	Y4	Z4	X5	Y5	Z5	

938	9.370	-781.70599	63.04993	-623.90625	788.68439	63.39906	-629.08386	-689.30829	-30.00869	507.67307	752.92578	-32.46843	517.31091	5.53061	1383.05017	-841.61041	
939	9.380	-782.56140	62.33051	-624.09735	787.49359	62.65125	-629.42310	-690.45703	-29.35348	507.61108	751.74908	-31.60452	516.58014	4.75704	1382.23401	-843.45929	
940	9.390	-783.29431	61.00069	-624.12915	786.56293	61.89978	-629.62927	-691.33783	-29.03892	507.32971	750.75867	-31.06132	516.75128	3.67823	1381.06848	-845.04547	
941	9.400	-784.34454	60.09839	-624.33026	785.61578	60.81797	-629.99335	-692.36456	-28.23320	507.21136	749.82904	-30.35148	516.48749	2.45958	1379.94995	-846.93311	
942	9.410	-785.72034	59.42108	-625.00214	784.46942	59.90752	-630.20343	-693.51703	-27.56981	507.07233	748.65918	-29.70386	516.47601	1.05601	1378.54272	-848.36957	
943	9.420	-786.63391	58.68420	-625.08643	783.54077	58.98546	-630.24121	-694.46979	-27.03648	506.78619	747.71234	-29.06472	516.39209	0.41707	1377.32092	-849.91345	
944	9.430	-787.45477	57.75906	-625.38135	782.54913	58.37815	-630.68439	-695.64722	-26.20261	506.71304	746.39044	-28.32618	516.07349	-0.76111	1376.54016	-851.41040	
945	9.440	-788.66174	56.48128	-625.54895	781.20642	57.92998	-631.02338	-696.64557	-25.71712	506.58252	745.59827	-27.69444	515.89111	-1.85917	1374.95874	-853.60724	
946	9.450	-789.86102	55.91294	-625.86066	780.25366	57.05548	-631.27783	-697.80994	-24.88235	506.11301	744.51086	-27.06956	515.71246	-3.20955	1373.51794	-855.90094	
947	9.460	-790.83893	54.54389	-626.38531	779.14734	55.38970	-631.68890	-698.78333	-24.04525	506.00403	743.20386	-26.34475	515.50128	-4.14116	1372.06274	-858.44031	
948	9.470	-791.85254	53.01666	-626.64740	778.08801	54.38486	-632.09827	-699.84045	-23.12103	505.84653	742.32684	-25.29655	515.26752	-4.96924	1370.52234	-861.28632	
949	9.480	-793.14374	51.96575	-627.20734	777.00586	53.16809	-632.47247	-701.11322	-22.53844	505.44000	741.30035	-24.32441	515.02869	-6.00559	1368.89661	-864.57324	
950	9.490	-794.35956	51.12136	-627.48560	775.98755	52.19153	-632.82721	-702.23962	-21.63857	505.24576	740.28796	-23.68395	514.79218	-7.23105	1367.20618	-867.88086	
951	9.500	-795.43372	50.12194	-627.70184	774.86664	50.89966	-633.08997	-703.36145	-20.70378	504.99832	738.88605	-22.73399	514.39581	-8.12093	1365.79846	-871.50464	
952	9.510	-796.38123	48.54446	-627.99304	773.52618	49.67953	-633.44012	-704.58221	-19.93922	504.83707	737.68958	-21.87775	514.37787	-9.79309	1364.54297	-875.18518	
953	9.520	-797.44202	47.67803	-628.57416	772.54449	48.84040	-633.79944	-705.61884	-18.98594	504.55673	736.59613	-21.25182	513.98401	-10.55800	1363.09485	-877.92084	
954	9.530	-798.62164	46.61177	-628.84314	771.47705	47.51419	-634.13062	-706.77802	-18.21291	504.42212	735.72412	-20.39739	513.82379	-11.39166	1361.48975	-880.81848	
955	9.540	-799.95587	45.61126	-628.82660	770.23773	46.48056	-634.33649	-708.10132	-17.06870	503.48138	734.70013	-19.58543	513.54901	-12.20468	1359.96326	-883.31500	
956	9.550	-800.82019	44.28241	-629.15399	769.25208	45.35962	-634.61072	-709.38562	-16.31822	503.79776	732.81537	-18.85899	513.85583	-13.54430	1358.37207	-885.44446	
957	9.560	-801.82489	43.06520	-629.76373	768.00519	44.29504	-635.09344	-709.85016	-16.22959	504.07346	732.13348	-17.83861	513.49927	-15.29651	1356.82324	-887.24213	
958	9.570	-803.24268	42.18904	-629.80750	766.94836	43.26194	-635.31628	-710.89069	-15.25687	503.75787	730.99310	-17.07229	513.13788	-16.40427	1355.44470	-889.16730	
959	9.580	-804.44507	40.95510	-630.35760	765.57941	41.96797	-635.87054	-712.18225	-14.39846	503.53195	730.00037	-16.17555	512.75165	-17.97148	1353.75293	-890.71527	
960	9.590	-805.47095	39.74466	-630.85748	764.58417	40.77447	-636.08112	-713.28046	-13.64055	503.12607	728.78003	-15.36805	512.47333	-18.56339	1351.74048	-892.27032	
961	9.600	-806.62006	38.51861	-631.07404	763.40173	39.48392	-636.36676	-714.51135	-12.66753	502.86844	727.37720	-14.50465	512.36340	-20.11956	1349.85071	-894.01379	
962	9.610	-807.71326	36.87682	-631.38495	762.19653	38.08947	-636.90558	-715.71643	-11.75035	502.57269	726.11182	-13.55969	512.01379	-21.21346	1348.12830	-896.66467	
963	9.620	-808.93762	35.51006	-631.64545	761.19861	36.84691	-637.16284	-716.80011	-10.85135	502.32074	725.17383	-12.59127	511.69034	-22.11751	1346.08118	-900.21222	
964	9.630	-809.94031	34.19533	-632.26843	760.06836	35.26242	-637.43555	-717.85693	-9.79607	502.02036	724.17938	-11.49850	511.28891	-23.43201	1344.21777	-904.20978	
965	9.640	-810.93658	33.04223	-632.71832	758.87286	33.92356	-637.97156	-718.88019	-8.86446	501.70181	722.90405	-10.75254	510.83429	-24.48542	1342.49048	-908.65601	
966	9.650	-812.32568	31.51132	-632.93152	757.77411	32.54615	-638.26666	-720.21057	-7.92411	501.40628	721.65857	-10.12763	510.30252	-25.66033	1340.49646	-913.06140	
967	9.660	-813.51776	30.15695	-633.32928	756.65283	31.26819	-638.54407	-721.35938	-7.05337	501.09479	720.84814	-8.43084	510.51947	-26.81836	1338.68555	-917.32794	
968	9.670	-814.60425	29.20729	-633.85571	755.49335	29.90410	-639.04034	-722.33948	-6.14409	500.99429	719.78632	-7.45016	510.37177	-27.71699	1336.76587	-921.64734	
969	9.680	-815.44824	27.47989	-634.05060	754.39288	28.44003	-639.34967	-723.49329	-5.18920	500.65411	718.62201	-6.50769	510.05420	-28.92628	1335.12415	-925.19427	
970	9.690	-816.67242	26.22915	-634.41254	753.17969	27.39024	-639.57813	-724.60370	-4.20383	500.42145	717.83984	-5.38590	509.79224	-29.79861	1332.94348	-928.73553	
971	9.700	-818.21033	25.08176	-634.66827	752.29022	25.94993	-640.17712	-725.91376	-3.30737	499.98193	716.61359	-4.58420	509.55472	-30.96453	1331.20740	-932.40216	
972	9.710	-819.07190	23.07040	-634.98969	750.87427	24.54689	-640.58838	-726.98212	-2.35592	499.83566	715.43622	-3.57408	509.10043	-32.08290	1329.13171	-935.36597	
973	9.720	-820.17084	22.04274	-635.20917	749.88538	23.07280	-640.75830	-728.07819	-1.37244	499.42593	713.97742	-2.51978	508.85629	-33.32915	1327.26917	-938.15594	
974	9.730	-821.11737	20.78865	-635.89038	748.86127	21.79524	-641.05280	-729.16010	-0.36298	499.19479	712.91931	-1.52720	508.46704	-34.29155	1325.14893	-940.68854	
975	9.740	-822.45087	19.24325	-636.03003	747.69592	20.37398	-641.61572	-730.20807	0.70199	498.82611	712.23761	-0.33904	508.30630	-35.44308	1323.12549	-943.02155	
976	9.750	-823.50702	17.77921	-636.50177	746.72937	19.04468	-641.78033	-731.45502	1.72154	498.39368	710.94287	0.59039	508.00345	-36.49453	1320.95776	-945.22656	
977	9.760	-824.61737	16.45367	-637.12897	745.74426	17.94703	-642.18329	-732.42694	2.74873	498.19791	709.96051	1.64898	507.55350	-37.64954	1318.90540	-947.34296	
978	9.770	-825.29254	14.80150	-637.12286	744.55853	16.15849	-642.51794	-733.47205	3.65096	497.81619	708.80493	2.66728	507.18506	-38.97613	1316.69348	-949.26508	
979	9.780	-826.76025	13.58467	-637.57104	743.34100	14.74450	-643.02148	-734.63440	4.68241	497.44348	707.58606	3.70797	506.95822	-40.15689	1314.58398	-951.00525	
980	9.790	-827.81427	12.30471	-637.84399	742.39288	13.46236	-643.31799	-735.55243	5.55887	497.18274	706.64734	4.84911	506.69003	-41.06621	1312.64978	-953.12219	
981	9.800	-828.70166	10.82202	-638.21509	741.22125	11.99226	-643.66223	-736.83771	6.87597	496.84933	705.26282	5.61778	505.77792	-42.37672	1310.73328	-955.70502	
982	9.810	-829.67938	10.03063	-638.63733	740.10059	10.92256	-643.92084	-737.90326	7.72991	496.47699	704.66162	6.85360	506.04794	-43.63467	1308.44397	-958.80994	
983	9.820	-830.65125	8.35152	-639.09753	739.32587	9.06070	-644.28333	-739.17773	9.43634	496.24832	703.48059	7.82950	505.61206	-44.82283	1306.31458	-962.13196	
984	9.830	-831.96313	6.38611	-639.32379	738.21936	7.05224	-644.56909	-739.59778	9.43546	495.73685	702.63843	8.88127	505.25998	-45.51387	1304.16956	-966.21979	
985	9.840	-832.95428	4.86575	-639.65527	737.04559	5.87156	-645.18390	-740.65350	10.55327	495.27756	701.65240	10.13411	504.95258	-46.62564	1301.73193	-970.34857	
986	9.850	-833.95410	3.26297	-640.22229	736.32190	4.50256	-645.61517	-741.57062	11.66060	494.99194	700.69391	10.98083	504.52051	-47.32387	1299.67517	-974.82758	
987	9.860	-834.49664	2.26230	-640.14679	735.30566	2.91004	-645.72931	-742.05432	11.89580	494.70972	699.89270	12.10416	504.12906	-48.22252	1297.35339	-979.21265	
988	9.870	-835.50006	1.10196	-640.59564	734.29590	1.58448	-646.02478	-743.03131	13.01675	494.55185	698.45276	13.06493	503.98132	-49.01167	1295.37683	-983.05316	
989	9.880	-836.58441	-0.56751	-640.86035	733.36853	0.25607	-646.30719	-744.20520	14.53789	494.08023	697.72925	14.00746	503.57104	-50.17036	1293.34790	-987.34656	
990	9.890	-837.70087	-2.36203	-641.11865	732.43195	-1.08623	-646.71228	-745.28357	15.54887	493.76593	697.01465	15.05389	503.43762	-50.92042	1291.15125	-990.94568	
991	9.900	-838.71246	-3.18689	-641.79889	731.69177	-2.61023	-647.01666	-746.23956	16.33515	493.43085	695.68597	15.93360	503.10526	-51.83557	1289.12244	-994.17841	
992	9.910	-839.22180	-4.85426	-641.78857	730.83429	-3.91069	-647.08618	-746.94348	17.05611	493.30551	695.18250	16.83270	502.54031	-52.37088	1287.03235	-998.14319	
993	9.920	-840.04041	-5.85293	-641.97156	730.04065	-4.96893	-647.36603	-748.12622	18.34202	492.90936	694.42926	17.78017	502.23370	-53.32772	1285.16333	-1001.11664	
994	9.930	-840.84076	-6.91840	-642.59424	729.14783	-6.41033	-647.65808	-748.70642	18.96143	492.58417	693.28723	18.77027	501.90961	-54.32189	1282.96692	-1004.49854	
995	9.940	-841.70007	-8.65759	-642.54095	728.33777	-7.57812	-647.95453	-749.48004	20.21249	492.31561	692.66473	19.74591	501.73761	-55.45338	1281.12097	-1007.27716	
996	9.950	-842.67297	-10.13023	-642.83893	727.45599	-8.97466	-648.31195	-750.39050	20.97627	491.91327	692.09503	20.71352	501.28519	-56.22913	1279.13000	-1009.95740	
997	9.960	-843.34735	-11.19421	-643.16077	726.73438	-10.34659	-648.72510	-751.44348	22.05526	491.57217	691.27679	21.75788	500.92163	-56.96402	1276.93787	-1012.45532	
998	9.970	-844.03094	-12.66024	-643.31799	726.15704	-11.69928	-648.65802	-751.94836	22.64509	491.34891	690.44879	22.41788	500.52884	-57.60447	1274.75183	-1015.11377	
999	9.980	-844.67987	-13.95554	-643.58905	725.38739	-13.15549	-649.17444	-752.81439	23.79958	490.94611	689.91064	23.46281	500.27539	-58.17095	1272.99768	-1017.28131	
1000	9.990	-845.22058	-15.20318	-643.97876	724.65393	-14.00845	-649.30017	-753.44794	24.75064	490.58301	689.35425	24.54547	500.00235	-58.91134	1270.82922	-1019.59979	
1001	10.000	-845.97339	-16.72204	-644.25116	723.91870	-15.64754	-649.72473	-754.02045	25.48826	490.16257	688.45392	25.40655	499.65756	-59.88094	1269.16895	-1021.38562	
1002	10.010	-846.53168	-18.06486	-644.48444	723.23901	-16.85326	-649.91528	-754.60254	26.55558	489.93655	687.83917	26.27698	499.18344	-60.26066	1266.99121	-1023.17627	
1003	10.020	-847.03906	-19.07692	-644.73645	722.82965	-18.08497	-650.02850	-754.93506	26.83418	489.42453	687.35193	27.13853	498.90286	-60.86589	1265.23425	-1025.14392	
1004	10.030	-847.72473	-20.37661	-644.85138	722.10907	-19.52555	-650.39563	-755.79834	28.05167	489.34875	686.59161	27.94589	498.48041	-61.42593	1262.91016	-1026.58801	
